<svg version="1.1" id="Layer_1" xmlns="http://www.w3.org/2000/svg" xmlns:xlink="http://www.w3.org/1999/xlink" x="0px" y="0px"
	 width="100%" viewBox="0 -96 1354 1354" enable-background="new 0 -96 1354 1354" xml:space="preserve">
<path fill="#FEFEFE" opacity="1.000000" stroke="none" 
	d="
M710.739136,758.881653 
	C711.019226,758.296082 711.299377,757.710510 712.038391,756.655579 
	C712.872681,755.135681 713.706970,753.615784 714.962097,751.727661 
	C715.179199,751.218445 715.396301,750.709229 716.070007,749.745117 
	C719.420837,743.814575 722.935608,737.969910 726.092224,731.937744 
	C736.179810,712.660217 746.134583,693.313171 756.642944,673.542236 
	C763.424805,659.027039 770.206604,644.511841 777.533264,629.531067 
	C786.238342,608.984375 794.943420,588.437622 803.995850,567.366516 
	C811.624573,546.913696 819.253296,526.460876 827.251892,505.365356 
	C833.383179,486.831543 839.514404,468.297729 845.999084,449.248596 
	C849.301758,438.167419 852.604370,427.086212 856.239197,415.388763 
	C856.510986,414.265900 856.782776,413.143066 857.462341,411.439606 
	C859.923462,402.624054 862.384583,393.808533 865.168762,384.448181 
	C866.118408,380.631897 867.068115,376.815613 868.401611,372.343658 
	C870.640686,363.247467 872.879700,354.151306 875.546814,344.450806 
	C876.518494,340.010071 877.490112,335.569305 878.699402,330.673157 
	C878.699768,330.501953 878.700134,330.330719 879.124634,329.649628 
	C880.456909,324.178589 881.901245,318.731964 883.101318,313.232056 
	C887.406494,293.501312 891.629211,273.752563 896.259399,253.325043 
	C899.181213,237.882019 902.103088,222.438995 905.121887,206.192673 
	C905.174805,204.849594 905.227722,203.506531 905.867432,201.838867 
	C906.019836,201.205246 906.172302,200.571609 906.647705,199.293747 
	C907.076538,197.519089 907.595520,195.760773 907.920959,193.967346 
	C913.199402,164.876892 918.491760,135.788849 923.693970,106.684700 
	C925.787598,94.971611 927.671631,83.221039 929.836853,70.385727 
	C922.240784,74.020485 915.563538,77.215538 908.150696,80.619469 
	C901.064087,83.898430 893.977417,87.177383 886.139771,90.656158 
	C880.620361,93.164093 875.100891,95.672020 868.783142,98.305817 
	C868.147766,99.319931 867.149780,100.262276 866.932678,101.359184 
	C864.534180,113.476181 862.338745,125.633430 859.930908,137.748489 
	C853.738647,168.905487 847.398254,200.033173 841.270325,231.202682 
	C839.529053,240.059448 838.313599,249.019547 836.203552,258.234344 
	C835.469971,260.826782 834.736450,263.419250 833.065918,266.031860 
	C826.717285,266.099030 820.368652,266.166199 813.097412,266.041107 
	C800.042969,266.104553 786.988525,266.167999 773.010925,266.124268 
	C739.942078,266.118622 706.873108,266.154785 673.804626,266.037964 
	C670.744019,266.027130 668.987366,266.831238 667.703613,269.706543 
	C665.609436,274.397125 662.999573,278.854340 660.730042,283.470367 
	C654.743408,295.646515 648.822693,307.855042 642.967834,320.622559 
	C643.322388,320.628235 643.677002,320.633911 644.959839,320.733978 
	C675.296448,320.655273 705.633057,320.576569 736.885498,320.725830 
	C746.910461,320.650665 756.935486,320.575470 767.876770,320.730927 
	C777.571777,320.638580 787.266724,320.546234 797.873901,320.698090 
	C803.627136,320.634766 809.380432,320.571442 815.949890,320.743256 
	C817.544434,320.854889 819.138977,320.966553 820.978333,321.095337 
	C820.669861,323.244446 820.399719,325.126526 819.824951,327.724304 
	C813.417114,351.428833 807.009338,375.133362 800.085449,399.360474 
	C799.546082,401.451477 799.100281,403.571899 798.452820,405.628906 
	C792.958740,423.083527 787.427979,440.526581 781.499756,458.570465 
	C778.148376,467.863617 774.850769,477.176575 771.432983,486.445251 
	C766.321289,500.307617 761.125122,514.138855 755.520813,528.527954 
	C747.991943,547.011719 740.463074,565.495483 732.423218,584.495361 
	C731.751709,586.512878 731.270020,588.618652 730.378967,590.534058 
	C722.387329,607.713013 714.323608,624.858459 705.882996,642.612549 
	C702.265747,650.075012 698.648560,657.537415 694.575684,665.499268 
	C693.742249,667.343994 692.908875,669.188721 691.576782,671.504822 
	C683.439148,687.004639 675.301453,702.504395 666.695496,718.526672 
	C664.589417,722.400940 662.483337,726.275208 659.896790,730.639465 
	C658.331543,733.428101 656.766296,736.216736 654.734924,739.522644 
	C633.436401,774.773987 611.071838,809.295654 583.869629,840.375610 
	C574.809875,850.726868 565.055420,860.470154 555.618591,870.491333 
	C554.831848,870.510132 554.045105,870.528992 553.258301,870.547791 
	C517.682129,798.362610 483.259521,725.606873 447.852325,653.338257 
	C412.467773,581.115906 377.154419,508.858704 341.288849,435.551819 
	C352.788208,436.216766 363.228058,435.897369 373.340698,437.563843 
	C419.013062,445.090057 451.576721,470.823669 471.467041,512.007751 
	C509.449280,590.652222 546.680359,669.659424 584.240845,748.507690 
	C588.859863,758.203979 593.587097,767.848755 598.724670,778.469055 
	C599.499084,777.178528 599.821533,776.596130 600.185791,776.041138 
	C611.515015,758.780029 622.914856,741.564209 634.051758,724.179932 
	C634.919495,722.825439 634.521118,720.032104 633.747803,718.350586 
	C625.397156,700.194092 616.897034,682.105896 608.353882,664.038574 
	C582.387878,609.125000 556.317078,554.260742 530.434082,499.308105 
	C521.618469,480.591309 512.494324,462.113586 498.645538,446.452850 
	C461.326416,404.251038 415.356934,380.423004 358.210480,380.137207 
	C329.886993,379.995544 301.564972,379.571472 273.241882,379.318512 
	C264.537262,379.240753 255.831345,379.306458 246.598038,379.306458 
	C247.669205,381.728699 248.340302,383.404846 249.135193,385.020050 
	C262.130432,411.426239 275.183655,437.803955 288.141418,464.228455 
	C354.163727,598.866699 420.131012,733.532043 486.203033,868.145935 
	C496.061859,888.232056 507.177979,907.621338 522.694397,923.990234 
	C563.939087,967.500854 614.399536,988.095581 674.243408,981.176392 
	C726.489197,975.135681 767.089355,948.317139 797.159912,905.472717 
	C813.874573,881.657837 825.099670,854.846252 838.493225,828.655273 
	C838.535095,828.481995 838.576965,828.308655 838.677490,827.973938 
	C838.677490,827.973938 838.744385,827.815918 839.187988,827.300720 
	C843.906860,817.934509 848.623962,808.567444 853.344849,799.202271 
	C865.477173,775.134521 877.611267,751.067749 890.242615,726.480103 
	C895.565491,715.344177 900.888428,704.208252 906.891663,692.925842 
	C907.831726,691.379211 908.887146,689.890198 909.693176,688.276672 
	C914.953613,677.745911 920.159973,667.188049 925.871765,656.110596 
	C933.628601,640.504700 941.385437,624.898804 949.679260,608.835449 
	C950.829041,606.316589 951.978821,603.797668 953.660645,600.805542 
	C955.176147,597.584290 956.691650,594.363037 958.074768,591.161743 
	C958.074768,591.161743 958.200195,591.208496 958.708557,590.845093 
	C959.105713,589.895203 959.502869,588.945312 960.150208,587.717773 
	C960.150208,587.717773 960.166260,587.344360 960.710571,586.900635 
	C969.270691,569.655396 977.744507,552.366577 986.409058,535.173950 
	C1004.278198,499.717316 1022.293091,464.334198 1040.157349,428.875122 
	C1047.938110,413.430908 1055.495361,397.874146 1063.684326,381.957367 
	C1063.452759,381.351562 1063.221313,380.745758 1062.063477,379.997925 
	C1042.049927,380.086517 1022.036438,380.175079 1001.230225,380.068542 
	C1000.148682,380.123474 999.067078,380.178406 997.554443,380.080078 
	C997.225098,380.075256 996.956970,380.201019 996.177612,380.897308 
	C986.450073,400.202820 976.676453,419.485291 967.012390,438.822540 
	C961.223145,450.406342 955.605103,462.075714 949.429810,474.119385 
	C949.019226,475.074310 948.608704,476.029236 947.792542,477.503357 
	C947.472046,478.306305 947.151550,479.109253 946.319824,480.361359 
	C945.165894,482.891754 944.011902,485.422150 942.334412,488.388397 
	C941.686035,489.837891 941.037659,491.287384 939.994080,493.260132 
	C927.237549,518.835754 914.453003,544.397461 901.736206,569.992798 
	C895.455872,582.633423 889.300415,595.336121 882.629761,608.547974 
	C877.751404,618.344849 872.833313,628.122375 868.039307,637.960327 
	C867.348450,639.377930 867.254028,641.086182 866.167908,642.804443 
	C865.737549,643.267090 865.167542,643.660156 864.897400,644.202576 
	C857.816040,658.423462 850.765808,672.659790 843.161438,687.302795 
	C840.728333,692.512756 838.295227,697.722778 835.316956,703.330383 
	C830.005798,713.981934 824.702148,724.637268 819.381775,735.284180 
	C809.220825,755.617615 798.485229,775.690002 789.099487,796.374939 
	C783.618835,808.453430 776.435913,818.300781 764.232117,825.027832 
	C744.151611,832.488586 726.145935,827.465088 709.545593,815.492371 
	C698.299866,831.281982 687.347595,846.659668 676.285583,862.191345 
	C695.817322,874.806030 716.919373,882.089661 740.108826,884.074768 
	C704.663879,929.101624 634.440735,932.891968 599.038696,909.997986 
	C605.036743,903.225037 611.185669,895.988770 617.644958,889.041016 
	C639.931274,865.069336 659.577881,839.032227 677.553101,811.758728 
	C688.891724,794.554871 699.351685,776.771973 710.163330,759.239929 
	C710.163330,759.239929 710.190796,759.234375 710.739136,758.881653 
M1093.017944,266.097229 
	C1075.024414,266.172089 1057.031006,266.246979 1038.114868,266.118103 
	C1029.752808,266.167297 1021.390686,266.216461 1012.106995,266.065918 
	C1003.413757,266.124573 994.720459,266.183228 985.103271,266.048096 
	C966.459961,265.973602 947.816589,265.904419 929.173340,265.817932 
	C926.810486,265.806976 924.656006,265.573151 923.883972,268.838989 
	C920.712036,282.255737 917.322021,295.620880 913.715210,309.697021 
	C913.015442,312.582336 912.315735,315.467621 911.182800,318.771301 
	C911.456543,319.156219 911.730286,319.541168 912.860168,320.083771 
	C916.178223,320.069519 919.496216,320.044098 922.814270,320.042847 
	C945.541565,320.034363 968.268799,320.030914 991.921875,320.191528 
	C1003.279724,320.138184 1014.637634,320.084839 1026.919556,320.209625 
	C1038.910400,320.229614 1050.903076,320.356232 1062.890137,320.152069 
	C1064.642334,320.122192 1067.214355,318.974701 1067.975952,317.569031 
	C1076.848022,301.191010 1085.445679,284.664246 1094.632324,267.818237 
	C1094.402710,267.276642 1094.173096,266.735046 1093.017944,266.097229 
z"/>
<path fill="#0D3E74" opacity="1.000000" stroke="none" 
	d="
M660.377258,730.149475 
	C662.483337,726.275208 664.589417,722.400940 667.283325,718.256958 
	C671.087952,715.603271 674.304810,713.219238 677.662659,710.730652 
	C676.863953,705.373413 677.694458,704.433350 683.542664,705.055237 
	C686.270630,705.345337 688.954834,706.046631 691.629211,706.555908 
	C690.491394,716.364685 690.797180,716.797302 699.295776,716.877136 
	C698.211243,719.131836 697.332764,721.211914 696.243347,723.174988 
	C693.153320,728.742798 696.567139,737.116455 702.876892,737.759155 
	C706.535034,738.131653 708.000916,740.029053 709.727783,742.454285 
	C711.607727,745.094482 713.644836,747.622864 715.613403,750.200012 
	C715.396301,750.709229 715.179199,751.218445 714.308105,751.909546 
	C712.542175,752.377075 711.354187,752.502686 710.336304,752.986267 
	C708.837463,753.698364 707.459900,754.665833 706.030701,755.524597 
	C707.422424,756.765991 708.814148,758.007385 710.205872,759.248779 
	C699.351685,776.771973 688.891724,794.554871 677.553101,811.758728 
	C659.577881,839.032227 639.931274,865.069336 617.644958,889.041016 
	C611.185669,895.988770 605.036743,903.225037 599.038696,909.997986 
	C634.440735,932.891968 704.663879,929.101624 740.108826,884.074768 
	C716.919373,882.089661 695.817322,874.806030 676.285583,862.191345 
	C687.347595,846.659668 698.299866,831.281982 709.545593,815.492371 
	C726.145935,827.465088 744.151611,832.488586 764.622314,825.390869 
	C766.314453,829.859863 773.917175,833.208801 775.718567,830.168213 
	C778.740601,825.067322 786.753601,821.672119 782.614685,814.477966 
	C784.668335,814.111694 786.596558,814.124512 788.208191,813.416504 
	C794.132385,810.814087 796.390381,812.216064 799.367493,817.917786 
	C801.298462,821.615906 802.714905,827.646545 809.693665,825.171570 
	C809.693665,827.325317 809.693665,828.965881 809.693665,830.459778 
	C811.870605,830.054810 813.750549,829.594360 815.658203,829.374207 
	C819.189087,828.966797 822.788513,828.967712 826.259827,828.289124 
	C828.992859,827.754944 832.096313,826.723267 828.076721,823.275330 
	C827.470703,822.755493 827.232544,820.942261 827.668335,820.300964 
	C828.165344,819.569519 830.318604,818.925415 830.530823,819.197205 
	C832.991760,822.348022 838.659302,822.478149 838.744385,827.815918 
	C838.744385,827.815918 838.677490,827.973938 838.411621,828.038696 
	C838.003723,828.159058 837.861694,828.214661 837.719666,828.270264 
	C837.842834,828.515442 837.966003,828.760681 838.089172,829.005859 
	C825.099670,854.846252 813.874573,881.657837 797.159912,905.472717 
	C767.089355,948.317139 726.489197,975.135681 674.243408,981.176392 
	C614.399536,988.095581 563.939087,967.500854 522.694397,923.990234 
	C507.177979,907.621338 496.061859,888.232056 486.203033,868.145935 
	C420.131012,733.532043 354.163727,598.866699 288.141418,464.228455 
	C275.183655,437.803955 262.130432,411.426239 249.135193,385.020050 
	C248.340302,383.404846 247.669205,381.728699 246.598038,379.306458 
	C255.831345,379.306458 264.537262,379.240753 273.241882,379.318512 
	C301.564972,379.571472 329.886993,379.995544 358.210480,380.137207 
	C415.356934,380.423004 461.326416,404.251038 498.645538,446.452850 
	C512.494324,462.113586 521.618469,480.591309 530.434082,499.308105 
	C556.317078,554.260742 582.387878,609.125000 608.353882,664.038574 
	C616.897034,682.105896 625.397156,700.194092 633.747803,718.350586 
	C634.521118,720.032104 634.919495,722.825439 634.051758,724.179932 
	C622.914856,741.564209 611.515015,758.780029 600.185791,776.041138 
	C599.821533,776.596130 599.499084,777.178528 598.724670,778.469055 
	C593.587097,767.848755 588.859863,758.203979 584.240845,748.507690 
	C546.680359,669.659424 509.449280,590.652222 471.467041,512.007751 
	C451.576721,470.823669 419.013062,445.090057 373.340698,437.563843 
	C363.228058,435.897369 352.788208,436.216766 341.288849,435.551819 
	C377.154419,508.858704 412.467773,581.115906 447.852325,653.338257 
	C483.259521,725.606873 517.682129,798.362610 553.258301,870.547791 
	C554.045105,870.528992 554.831848,870.510132 555.618591,870.491333 
	C565.055420,860.470154 574.809875,850.726868 583.869629,840.375610 
	C611.071838,809.295654 633.436401,774.773987 655.359009,739.263428 
	C658.472595,740.463318 660.961975,741.922424 664.270203,743.861511 
	C662.847412,738.849976 661.612305,734.499756 660.377258,730.149475 
M695.327148,743.928162 
	C697.431519,740.902527 696.178833,739.102966 690.108154,738.414978 
	C692.025940,740.779480 693.305359,742.356934 695.327148,743.928162 
z"/>
<path fill="#39608C" opacity="1.000000" stroke="none" 
	d="
M942.857910,487.952515 
	C944.011902,485.422150 945.165894,482.891754 946.958252,480.302124 
	C955.386902,481.373291 962.637939,481.116913 967.863647,473.809814 
	C970.257324,470.462830 972.878357,467.082123 976.056763,464.543823 
	C979.776794,461.572937 984.486938,459.851349 988.253296,456.925751 
	C990.944153,454.835571 993.100647,451.848877 994.926331,448.908752 
	C996.990662,445.584412 998.538025,441.915649 1000.076721,438.297394 
	C1000.958069,436.225159 1001.159790,433.863525 1002.044373,431.793243 
	C1004.214966,426.713257 1006.464050,421.655975 1008.952393,416.726257 
	C1010.743958,413.176819 1013.424500,410.031525 1014.907898,406.380646 
	C1017.738953,399.413239 1018.830505,391.540100 1027.148315,388.167145 
	C1029.885864,387.057007 1032.218750,384.948669 1034.736694,383.296753 
	C1032.771973,382.169067 1031.185059,382.017639 1029.597656,382.012268 
	C1021.934692,381.986450 1014.269531,382.093536 1006.610413,381.920929 
	C1005.069580,381.886200 1003.551453,380.842285 1002.022888,380.263672 
	C1022.036438,380.175079 1042.049927,380.086517 1062.537598,380.441040 
	C1063.059082,381.378967 1063.106567,381.873749 1063.154053,382.368469 
	C1055.495361,397.874146 1047.938110,413.430908 1040.157349,428.875122 
	C1022.293091,464.334198 1004.278198,499.717316 986.409058,535.173950 
	C977.744507,552.366577 969.270691,569.655396 960.394531,586.723511 
	C960.579041,584.989258 960.927124,583.362000 961.605042,581.886414 
	C965.761536,572.839294 969.786499,563.722168 974.276672,554.841553 
	C976.958984,549.536621 982.240356,545.319153 980.280518,538.283325 
	C980.137329,537.769226 981.890930,536.901306 982.408936,535.995544 
	C983.950562,533.299805 985.315613,530.503174 986.749634,527.745911 
	C983.817688,526.787842 980.913757,525.722900 977.934998,524.943848 
	C977.151550,524.738953 976.136719,525.418762 974.757507,525.834045 
	C976.889587,532.380798 972.980896,535.109375 968.017517,537.505310 
	C966.360962,538.304932 965.317810,540.385498 964.010315,541.894348 
	C963.117249,542.924927 962.346863,544.080872 961.358459,545.006470 
	C955.876892,550.140015 950.599854,555.537476 944.756042,560.225342 
	C939.396912,564.524414 933.609619,568.414551 927.565857,571.654480 
	C925.892090,572.551819 922.634521,570.476868 920.097656,569.787476 
	C917.921143,569.195984 915.758667,568.508728 913.545227,568.116760 
	C912.483643,567.928833 911.320129,568.415405 910.199829,568.435913 
	C908.632446,568.464600 907.062256,568.343140 905.493286,568.285889 
	C905.883972,569.919373 905.908203,571.773132 906.733032,573.145691 
	C909.379150,577.548645 907.550049,581.151184 902.480408,582.114929 
	C900.181519,582.551880 897.434998,583.851624 896.150208,585.656189 
	C894.197693,588.398499 893.607300,592.066956 891.956177,595.077698 
	C889.526062,599.508911 886.671387,603.707275 883.770325,608.010986 
	C883.543091,608.017090 883.088501,608.010803 883.088501,608.010742 
	C889.300415,595.336121 895.455872,582.633423 901.736206,569.992798 
	C914.453003,544.397461 927.237549,518.835754 940.595825,493.077515 
	C942.305298,492.220795 943.673584,491.739258 944.386841,490.773743 
	C944.656372,490.408905 943.412170,488.925873 942.857910,487.952515 
M991.699341,516.683044 
	C992.285889,515.189880 992.872375,513.696655 993.458862,512.203430 
	C992.320068,512.159607 991.181213,512.115845 990.042358,512.072021 
	C990.377502,513.512024 990.712646,514.951965 991.699341,516.683044 
z"/>
<path fill="#144379" opacity="1.000000" stroke="none" 
	d="
M838.966187,827.558350 
	C838.659302,822.478149 832.991760,822.348022 830.530823,819.197205 
	C830.318604,818.925415 828.165344,819.569519 827.668335,820.300964 
	C827.232544,820.942261 827.470703,822.755493 828.076721,823.275330 
	C832.096313,826.723267 828.992859,827.754944 826.259827,828.289124 
	C822.788513,828.967712 819.189087,828.966797 815.658203,829.374207 
	C813.750549,829.594360 811.870605,830.054810 809.693665,830.459778 
	C809.693665,828.965881 809.693665,827.325317 809.693665,825.171570 
	C802.714905,827.646545 801.298462,821.615906 799.367493,817.917786 
	C796.390381,812.216064 794.132385,810.814087 788.208191,813.416504 
	C786.596558,814.124512 784.668335,814.111694 782.614685,814.477966 
	C786.753601,821.672119 778.740601,825.067322 775.718567,830.168213 
	C773.917175,833.208801 766.314453,829.859863 765.005981,825.364136 
	C776.435913,818.300781 783.618835,808.453430 789.099487,796.374939 
	C798.485229,775.690002 809.220825,755.617615 819.381775,735.284180 
	C824.702148,724.637268 830.005798,713.981934 835.859619,703.328979 
	C836.607483,709.763000 837.817627,715.698364 843.804871,719.548645 
	C844.849182,720.220154 845.775146,721.438782 846.227356,722.608887 
	C849.278015,730.502319 856.424316,730.457153 863.040649,731.464661 
	C866.509827,731.992859 870.271545,731.822388 873.375000,733.174866 
	C876.299805,734.449463 878.534119,737.308472 881.464966,739.805115 
	C882.576355,737.681396 883.549744,735.430664 884.868896,733.405090 
	C886.329224,731.162903 888.105835,729.126648 889.744629,727.000610 
	C877.611267,751.067749 865.477173,775.134521 853.344849,799.202271 
	C848.623962,808.567444 843.906860,817.934509 838.966187,827.558350 
M860.857117,738.827087 
	C862.415710,739.176270 863.974304,739.525452 865.532898,739.874634 
	C865.720703,739.482666 865.908447,739.090759 866.096252,738.698853 
	C864.624207,736.940491 863.152161,735.182068 861.680176,733.423706 
	C861.188538,733.462524 860.696899,733.501343 860.205261,733.540161 
	C860.205261,735.187866 860.205261,736.835571 860.857117,738.827087 
M813.209839,824.622375 
	C813.165039,823.529541 813.120239,822.436646 813.075439,821.343872 
	C812.512573,821.498657 811.949646,821.653442 811.386780,821.808167 
	C811.757141,822.805664 812.127563,823.803223 813.209839,824.622375 
M807.797974,817.392029 
	C807.793823,817.786011 807.789673,818.179932 807.785461,818.573914 
	C807.948975,818.575439 808.254578,818.588013 808.255432,818.576965 
	C808.285645,818.184937 808.287354,817.790710 807.797974,817.392029 
z"/>
<path fill="#53749B" opacity="1.000000" stroke="none" 
	d="
M895.883118,254.010620 
	C891.629211,273.752563 887.406494,293.501312 883.101318,313.232056 
	C881.901245,318.731964 880.456909,324.178589 878.647278,329.914551 
	C878.267212,330.495850 878.364441,330.812195 878.461731,331.128571 
	C877.490112,335.569305 876.518494,340.010071 875.057556,344.546997 
	C874.998596,341.090302 873.616638,338.846863 870.562439,336.694611 
	C868.662903,335.356018 867.676331,332.169769 867.096558,329.626617 
	C865.922241,324.475464 865.704590,319.090698 864.348389,314.000549 
	C862.824890,308.282806 860.523560,302.871796 861.865417,296.665649 
	C862.504517,293.709839 862.283264,290.439606 861.836060,287.402435 
	C860.688232,279.606323 859.348267,271.830353 857.793274,264.105042 
	C856.562622,257.991241 854.961914,251.948273 853.396423,245.907318 
	C852.781250,243.533707 850.910950,241.140152 851.180237,238.948257 
	C851.941772,232.747375 853.623901,226.665497 854.716003,220.496506 
	C855.187195,217.834686 855.256531,215.071945 855.225098,212.358337 
	C855.183777,208.781845 853.613708,204.633972 854.935425,201.759079 
	C857.342041,196.524582 857.474487,191.601700 857.251099,186.076950 
	C857.089966,182.091248 859.364929,178.033752 860.391174,173.967361 
	C862.116821,167.129547 863.777588,160.273834 865.347656,153.398682 
	C867.131348,145.587997 868.803833,137.751602 870.466125,129.913971 
	C870.626709,129.156647 870.248474,128.297852 870.335388,127.509865 
	C870.690674,124.287994 871.003845,121.053276 871.563660,117.863861 
	C872.751221,111.097763 874.812927,104.284508 869.581421,98.179932 
	C875.100891,95.672020 880.620361,93.164093 886.543945,90.976410 
	C888.214355,94.112366 890.327026,96.852615 890.586060,99.758110 
	C891.319397,107.984726 892.424500,116.529800 888.254883,124.177307 
	C885.128906,129.910767 885.391235,135.933411 886.348145,141.657791 
	C887.374146,147.795822 886.699036,153.246017 883.732788,158.396774 
	C880.710999,163.644043 880.881470,168.915558 881.536377,174.705963 
	C882.036682,179.129028 882.182922,185.091995 879.704895,187.997543 
	C876.065552,192.264801 875.625977,195.535980 877.027283,200.451157 
	C878.006958,203.887329 878.667908,208.164658 877.476196,211.310486 
	C875.130798,217.501511 876.150696,223.018982 879.641724,227.722610 
	C883.300964,232.652985 884.698853,237.739899 883.919922,243.519211 
	C883.531860,246.398529 881.988220,249.128601 881.651306,252.006256 
	C881.388184,254.253387 881.429932,257.364960 882.747314,258.698303 
	C883.747192,259.710297 887.145264,258.985596 889.154358,258.205170 
	C891.575134,257.264801 893.655396,255.447998 895.883118,254.010620 
z"/>
<path fill="#0D3E74" opacity="1.000000" stroke="none" 
	d="
M642.875732,320.050690 
	C648.822693,307.855042 654.743408,295.646515 660.730042,283.470367 
	C662.999573,278.854340 665.609436,274.397125 667.703613,269.706543 
	C668.987366,266.831238 670.744019,266.027130 673.804626,266.037964 
	C706.873108,266.154785 739.942078,266.118622 773.469727,266.473206 
	C773.964722,267.214386 774.000854,267.606567 773.698303,268.000061 
	C772.908020,268.002533 772.456482,268.003693 771.535889,268.001343 
	C760.227417,267.997803 749.387878,267.997803 740.073303,267.997803 
	C739.770142,271.555756 739.896973,273.989288 739.301514,276.230957 
	C738.092041,280.784149 735.931213,285.140625 735.167603,289.744873 
	C733.468384,299.990204 733.207581,310.313690 735.969666,320.497833 
	C705.633057,320.576569 675.296448,320.655273 644.360229,320.498535 
	C643.494934,320.070435 643.199951,319.999634 642.875732,320.050690 
z"/>
<path fill="#114176" opacity="1.000000" stroke="none" 
	d="
M715.841675,749.972534 
	C713.644836,747.622864 711.607727,745.094482 709.727783,742.454285 
	C708.000916,740.029053 706.535034,738.131653 702.876892,737.759155 
	C696.567139,737.116455 693.153320,728.742798 696.243347,723.174988 
	C697.332764,721.211914 698.211243,719.131836 699.295776,716.877136 
	C690.797180,716.797302 690.491394,716.364685 691.629211,706.555908 
	C688.954834,706.046631 686.270630,705.345337 683.542664,705.055237 
	C677.694458,704.433350 676.863953,705.373413 677.662659,710.730652 
	C674.304810,713.219238 671.087952,715.603271 667.517456,717.995728 
	C675.301453,702.504395 683.439148,687.004639 692.091797,671.474854 
	C694.000854,672.131470 695.991516,673.745483 696.664917,673.312195 
	C698.079224,672.402283 699.942078,669.968994 699.551331,668.973389 
	C698.899719,667.313293 696.623474,666.290833 695.031311,664.999878 
	C698.648560,657.537415 702.265747,650.075012 706.430420,642.322998 
	C707.603149,643.864380 708.228394,645.695374 708.941284,647.782837 
	C711.616882,647.534302 714.464417,647.269897 716.567749,647.074524 
	C718.873047,652.266602 720.827454,656.668396 722.781860,661.070190 
	C725.352722,662.923462 727.217468,665.329468 729.061340,667.751465 
	C729.829041,668.760010 730.492737,670.629639 731.305542,670.687927 
	C735.025146,670.954651 739.267151,671.803406 742.404785,670.397400 
	C746.653381,668.493469 748.398071,670.240051 750.432251,673.044861 
	C751.091431,673.953918 751.777344,674.843628 752.417847,675.697876 
	C753.821777,675.054932 754.981201,674.523926 756.140625,673.992920 
	C746.134583,693.313171 736.179810,712.660217 726.092224,731.937744 
	C722.935608,737.969910 719.420837,743.814575 715.841675,749.972534 
z"/>
<path fill="#4A6D96" opacity="1.000000" stroke="none" 
	d="
M869.182251,98.242874 
	C874.812927,104.284508 872.751221,111.097763 871.563660,117.863861 
	C871.003845,121.053276 870.690674,124.287994 870.335388,127.509865 
	C870.248474,128.297852 870.626709,129.156647 870.466125,129.913971 
	C868.803833,137.751602 867.131348,145.587997 865.347656,153.398682 
	C863.777588,160.273834 862.116821,167.129547 860.391174,173.967361 
	C859.364929,178.033752 857.089966,182.091248 857.251099,186.076950 
	C857.474487,191.601700 857.342041,196.524582 854.935425,201.759079 
	C853.613708,204.633972 855.183777,208.781845 855.225098,212.358337 
	C855.256531,215.071945 855.187195,217.834686 854.716003,220.496506 
	C853.623901,226.665497 851.941772,232.747375 851.180237,238.948257 
	C850.910950,241.140152 852.781250,243.533707 853.396423,245.907318 
	C854.961914,251.948273 856.562622,257.991241 857.793274,264.105042 
	C859.348267,271.830353 860.688232,279.606323 861.836060,287.402435 
	C862.283264,290.439606 862.504517,293.709839 861.865417,296.665649 
	C860.523560,302.871796 862.824890,308.282806 864.348389,314.000549 
	C865.704590,319.090698 865.922241,324.475464 867.096558,329.626617 
	C867.676331,332.169769 868.662903,335.356018 870.562439,336.694611 
	C873.616638,338.846863 874.998596,341.090302 874.843506,344.849152 
	C872.879700,354.151306 870.640686,363.247467 867.778870,372.671204 
	C859.755188,372.981537 859.468933,372.712433 857.968445,365.028107 
	C857.320496,361.709839 855.980347,359.349915 851.995728,358.800201 
	C850.059509,358.533051 847.910706,356.768982 846.667175,355.085083 
	C842.843994,349.908142 840.770386,344.190338 841.881958,337.469208 
	C842.323792,334.797485 841.393738,331.914948 841.210754,329.120331 
	C840.850891,323.622833 840.314758,318.117218 840.366821,312.619843 
	C840.397339,309.401093 841.626465,306.212311 841.952820,302.973419 
	C842.455872,297.978973 842.955322,292.947571 842.866089,287.942383 
	C842.802917,284.400970 841.763367,280.877045 841.160889,277.345093 
	C840.776245,275.089447 839.559082,272.569763 840.172119,270.628601 
	C841.799316,265.476440 839.585754,261.728973 836.857056,257.932251 
	C838.313599,249.019547 839.529053,240.059448 841.270325,231.202682 
	C847.398254,200.033173 853.738647,168.905487 859.930908,137.748489 
	C862.338745,125.633430 864.534180,113.476181 866.932678,101.359184 
	C867.149780,100.262276 868.147766,99.319931 869.182251,98.242874 
z"/>
<path fill="#224D7F" opacity="1.000000" stroke="none" 
	d="
M803.648499,567.890930 
	C794.943420,588.437622 786.238342,608.984375 776.932922,629.814941 
	C773.718750,632.397888 772.044922,631.643616 770.998047,628.521362 
	C769.468018,623.958008 767.438293,620.559814 762.395142,618.071106 
	C758.196228,615.999207 755.421143,610.514526 752.774170,606.087708 
	C751.731995,604.344604 753.309875,601.225037 752.729309,598.982178 
	C750.499451,590.368408 739.839111,582.873901 732.934204,583.979248 
	C740.463074,565.495483 747.991943,547.011719 756.088013,528.403320 
	C762.504028,530.447510 758.343933,524.073181 762.128784,523.262939 
	C765.735229,524.277344 770.997498,524.411011 772.853821,530.577881 
	C773.940063,534.186340 774.856506,538.094788 776.963013,541.083374 
	C779.534119,544.731323 779.156677,547.981506 778.155090,551.782898 
	C776.661743,557.450378 780.199524,564.654968 785.555664,565.790955 
	C791.469116,567.045044 797.607849,567.236572 803.648499,567.890930 
z"/>
<path fill="#285282" opacity="1.000000" stroke="none" 
	d="
M803.822144,567.628723 
	C797.607849,567.236572 791.469116,567.045044 785.555664,565.790955 
	C780.199524,564.654968 776.661743,557.450378 778.155090,551.782898 
	C779.156677,547.981506 779.534119,544.731323 776.963013,541.083374 
	C774.856506,538.094788 773.940063,534.186340 772.853821,530.577881 
	C770.997498,524.411011 765.735229,524.277344 762.128784,523.262939 
	C758.343933,524.073181 762.504028,530.447510 756.309998,528.130981 
	C761.125122,514.138855 766.321289,500.307617 771.432983,486.445251 
	C774.850769,477.176575 778.148376,467.863617 782.070068,458.420166 
	C791.839355,460.553345 791.935242,461.093384 789.630249,470.267181 
	C789.144958,472.198547 791.124451,474.799652 792.102600,477.033264 
	C792.971008,479.016205 794.403198,480.824066 794.911316,482.876404 
	C795.701294,486.067169 794.934204,490.056458 796.586487,492.533691 
	C799.900696,497.502441 804.357788,501.721405 808.480652,506.121002 
	C808.950195,506.622131 810.486328,506.668121 811.209106,506.299713 
	C816.047485,503.833679 820.346741,503.674500 823.343384,508.984283 
	C824.791870,507.766052 825.836975,506.887054 826.882080,506.008026 
	C819.253296,526.460876 811.624573,546.913696 803.822144,567.628723 
z"/>
<path fill="#18467A" opacity="1.000000" stroke="none" 
	d="
M732.678711,584.237305 
	C739.839111,582.873901 750.499451,590.368408 752.729309,598.982178 
	C753.309875,601.225037 751.731995,604.344604 752.774170,606.087708 
	C755.421143,610.514526 758.196228,615.999207 762.395142,618.071106 
	C767.438293,620.559814 769.468018,623.958008 770.998047,628.521362 
	C772.044922,631.643616 773.718750,632.397888 776.660522,630.047729 
	C770.206604,644.511841 763.424805,659.027039 756.391785,673.767578 
	C754.981201,674.523926 753.821777,675.054932 752.417847,675.697876 
	C751.777344,674.843628 751.091431,673.953918 750.432251,673.044861 
	C748.398071,670.240051 746.653381,668.493469 742.404785,670.397400 
	C739.267151,671.803406 735.025146,670.954651 731.305542,670.687927 
	C730.492737,670.629639 729.829041,668.760010 729.061340,667.751465 
	C727.217468,665.329468 725.352722,662.923462 722.781860,661.070190 
	C720.827454,656.668396 718.873047,652.266602 716.567749,647.074524 
	C714.464417,647.269897 711.616882,647.534302 708.941284,647.782837 
	C708.228394,645.695374 707.603149,643.864380 706.629517,642.023621 
	C714.323608,624.858459 722.387329,607.713013 730.378967,590.534058 
	C731.270020,588.618652 731.751709,586.512878 732.678711,584.237305 
z"/>
<path fill="#436893" opacity="1.000000" stroke="none" 
	d="
M836.530273,258.083313 
	C839.585754,261.728973 841.799316,265.476440 840.172119,270.628601 
	C839.559082,272.569763 840.776245,275.089447 841.160889,277.345093 
	C841.763367,280.877045 842.802917,284.400970 842.866089,287.942383 
	C842.955322,292.947571 842.455872,297.978973 841.952820,302.973419 
	C841.626465,306.212311 840.397339,309.401093 840.366821,312.619843 
	C840.314758,318.117218 840.850891,323.622833 841.210754,329.120331 
	C841.393738,331.914948 842.323792,334.797485 841.881958,337.469208 
	C840.770386,344.190338 842.843994,349.908142 846.667175,355.085083 
	C847.910706,356.768982 850.059509,358.533051 851.995728,358.800201 
	C855.980347,359.349915 857.320496,361.709839 857.968445,365.028107 
	C859.468933,372.712433 859.755188,372.981537 867.586914,372.999023 
	C867.068115,376.815613 866.118408,380.631897 864.645691,384.727661 
	C862.563538,386.944489 859.734680,388.851685 859.687866,390.824860 
	C859.557007,396.342560 859.354675,401.589966 856.655457,406.635223 
	C855.938477,407.975433 856.876465,410.201080 857.054565,412.020203 
	C856.782776,413.143066 856.510986,414.265900 855.695007,415.695312 
	C853.567261,414.604767 851.510620,413.481995 850.505798,411.749268 
	C848.795349,408.799835 847.394531,406.332520 843.471069,405.526794 
	C837.055786,404.209320 831.668030,395.232330 833.160706,388.350708 
	C834.032471,384.331818 833.798523,379.605804 832.546265,375.681610 
	C828.896179,364.243347 824.383972,353.082581 820.485291,341.718506 
	C819.949829,340.157654 820.437683,337.700195 821.385742,336.282349 
	C823.840576,332.610809 823.701355,329.677734 820.129517,327.008636 
	C820.399719,325.126526 820.669861,323.244446 820.978333,321.095337 
	C819.138977,320.966553 817.544434,320.854889 815.845947,320.439392 
	C817.192200,320.043732 818.642334,319.951935 820.294312,319.782166 
	C820.749634,319.533936 820.911438,319.300140 821.253418,318.780823 
	C816.920593,309.683289 819.238831,300.484314 819.827881,291.233704 
	C820.308105,283.691528 819.304443,276.054871 818.937927,268.002167 
	C822.543213,268.002167 826.348511,268.171417 830.124268,267.910828 
	C831.454468,267.819031 832.712158,266.675201 834.002930,266.011719 
	C834.736450,263.419250 835.469971,260.826782 836.530273,258.083313 
z"/>
<path fill="#335B89" opacity="1.000000" stroke="none" 
	d="
M827.067017,505.686707 
	C825.836975,506.887054 824.791870,507.766052 823.343384,508.984283 
	C820.346741,503.674500 816.047485,503.833679 811.209106,506.299713 
	C810.486328,506.668121 808.950195,506.622131 808.480652,506.121002 
	C804.357788,501.721405 799.900696,497.502441 796.586487,492.533691 
	C794.934204,490.056458 795.701294,486.067169 794.911316,482.876404 
	C794.403198,480.824066 792.971008,479.016205 792.102600,477.033264 
	C791.124451,474.799652 789.144958,472.198547 789.630249,470.267181 
	C791.935242,461.093384 791.839355,460.553345 782.274292,458.121490 
	C787.427979,440.526581 792.958740,423.083527 798.452820,405.628906 
	C799.100281,403.571899 799.546082,401.451477 800.754333,399.167084 
	C811.015076,401.942841 811.090637,401.943909 810.943970,412.274231 
	C810.909729,414.692749 809.921265,417.092468 809.836487,419.517090 
	C809.761353,421.665527 810.128906,423.891907 810.696228,425.976257 
	C811.020508,427.167603 812.643250,428.070984 812.809509,429.229187 
	C813.864258,436.577362 814.675659,443.960510 815.632690,451.872589 
	C817.288330,451.779449 819.039917,451.539978 820.774536,451.629181 
	C822.097534,451.697205 823.859802,451.746765 824.627563,452.559448 
	C827.421082,455.516479 830.002136,455.566620 833.418213,453.486572 
	C835.581665,452.169250 838.380920,451.895721 840.895569,451.155884 
	C842.478455,450.690155 844.062256,450.227783 845.645691,449.763916 
	C839.514404,468.297729 833.383179,486.831543 827.067017,505.686707 
z"/>
<path fill="#3B628E" opacity="1.000000" stroke="none" 
	d="
M845.822388,449.506256 
	C844.062256,450.227783 842.478455,450.690155 840.895569,451.155884 
	C838.380920,451.895721 835.581665,452.169250 833.418213,453.486572 
	C830.002136,455.566620 827.421082,455.516479 824.627563,452.559448 
	C823.859802,451.746765 822.097534,451.697205 820.774536,451.629181 
	C819.039917,451.539978 817.288330,451.779449 815.632690,451.872589 
	C814.675659,443.960510 813.864258,436.577362 812.809509,429.229187 
	C812.643250,428.070984 811.020508,427.167603 810.696228,425.976257 
	C810.128906,423.891907 809.761353,421.665527 809.836487,419.517090 
	C809.921265,417.092468 810.909729,414.692749 810.943970,412.274231 
	C811.090637,401.943909 811.015076,401.942841 801.012390,398.905792 
	C807.009338,375.133362 813.417114,351.428833 819.977295,327.366455 
	C823.701355,329.677734 823.840576,332.610809 821.385742,336.282349 
	C820.437683,337.700195 819.949829,340.157654 820.485291,341.718506 
	C824.383972,353.082581 828.896179,364.243347 832.546265,375.681610 
	C833.798523,379.605804 834.032471,384.331818 833.160706,388.350708 
	C831.668030,395.232330 837.055786,404.209320 843.471069,405.526794 
	C847.394531,406.332520 848.795349,408.799835 850.505798,411.749268 
	C851.510620,413.481995 853.567261,414.604767 855.528931,416.003418 
	C852.604370,427.086212 849.301758,438.167419 845.822388,449.506256 
z"/>
<path fill="#305987" opacity="1.000000" stroke="none" 
	d="
M883.997559,608.004883 
	C886.671387,603.707275 889.526062,599.508911 891.956177,595.077698 
	C893.607300,592.066956 894.197693,588.398499 896.150208,585.656189 
	C897.434998,583.851624 900.181519,582.551880 902.480408,582.114929 
	C907.550049,581.151184 909.379150,577.548645 906.733032,573.145691 
	C905.908203,571.773132 905.883972,569.919373 905.493286,568.285889 
	C907.062256,568.343140 908.632446,568.464600 910.199829,568.435913 
	C911.320129,568.415405 912.483643,567.928833 913.545227,568.116760 
	C915.758667,568.508728 917.921143,569.195984 920.097656,569.787476 
	C922.634521,570.476868 925.892090,572.551819 927.565857,571.654480 
	C933.609619,568.414551 939.396912,564.524414 944.756042,560.225342 
	C950.599854,555.537476 955.876892,550.140015 961.358459,545.006470 
	C962.346863,544.080872 963.117249,542.924927 964.010315,541.894348 
	C965.317810,540.385498 966.360962,538.304932 968.017517,537.505310 
	C972.980896,535.109375 976.889587,532.380798 974.757507,525.834045 
	C976.136719,525.418762 977.151550,524.738953 977.934998,524.943848 
	C980.913757,525.722900 983.817688,526.787842 986.749634,527.745911 
	C985.315613,530.503174 983.950562,533.299805 982.408936,535.995544 
	C981.890930,536.901306 980.137329,537.769226 980.280518,538.283325 
	C982.240356,545.319153 976.958984,549.536621 974.276672,554.841553 
	C969.786499,563.722168 965.761536,572.839294 961.605042,581.886414 
	C960.927124,583.362000 960.579041,584.989258 960.122375,586.945374 
	C960.166260,587.344360 960.150208,587.717773 959.677856,587.926331 
	C958.870422,589.159424 958.535278,590.183960 958.200195,591.208496 
	C958.200195,591.208496 958.074768,591.161743 957.723022,591.106934 
	C954.381653,592.469482 951.339355,593.788330 948.422485,595.342407 
	C946.758423,596.229065 945.431519,597.811096 943.722412,598.539490 
	C938.266296,600.864807 931.756897,601.539612 929.519775,608.523682 
	C929.318115,609.153259 927.880127,609.868530 927.128235,609.761047 
	C922.686707,609.126099 918.200989,608.548523 913.879333,607.393494 
	C909.071472,606.108704 906.877686,607.087036 905.986389,611.864807 
	C905.365356,615.193909 903.327454,615.959595 900.044495,615.424255 
	C900.617554,612.950928 901.120728,610.779297 901.623901,608.607666 
	C901.338135,608.298584 901.052368,607.989502 900.766602,607.680481 
	C899.464600,608.528137 897.988770,609.196045 896.892517,610.256348 
	C893.209656,613.818420 885.436035,612.522217 883.997559,608.004883 
z"/>
<path fill="#5F7EA2" opacity="1.000000" stroke="none" 
	d="
M896.071289,253.667831 
	C893.655396,255.447998 891.575134,257.264801 889.154358,258.205170 
	C887.145264,258.985596 883.747192,259.710297 882.747314,258.698303 
	C881.429932,257.364960 881.388184,254.253387 881.651306,252.006256 
	C881.988220,249.128601 883.531860,246.398529 883.919922,243.519211 
	C884.698853,237.739899 883.300964,232.652985 879.641724,227.722610 
	C876.150696,223.018982 875.130798,217.501511 877.476196,211.310486 
	C878.667908,208.164658 878.006958,203.887329 877.027283,200.451157 
	C875.625977,195.535980 876.065552,192.264801 879.704895,187.997543 
	C882.182922,185.091995 882.036682,179.129028 881.536377,174.705963 
	C880.881470,168.915558 880.710999,163.644043 883.732788,158.396774 
	C886.699036,153.246017 887.374146,147.795822 886.348145,141.657791 
	C885.391235,135.933411 885.128906,129.910767 888.254883,124.177307 
	C892.424500,116.529800 891.319397,107.984726 890.586060,99.758110 
	C890.327026,96.852615 888.214355,94.112366 886.919434,90.876511 
	C893.977417,87.177383 901.064087,83.898430 908.567810,80.935020 
	C912.395996,88.643639 910.027466,95.814003 906.250122,101.736450 
	C901.211182,109.637024 900.848145,117.698013 901.578979,126.395218 
	C901.972046,131.072235 902.718628,136.109955 901.465698,140.454269 
	C898.790588,149.730331 896.973694,158.707230 900.990723,167.971695 
	C902.447083,171.330322 901.678528,174.145309 899.605652,177.224121 
	C896.823425,181.356323 895.782166,185.770386 899.146729,190.611893 
	C901.847900,194.498734 902.451477,199.100281 900.655396,203.843140 
	C900.103760,205.299866 900.413025,207.082596 900.291504,209.419052 
	C902.496216,208.290436 903.760559,207.643188 905.024963,206.995956 
	C902.103088,222.438995 899.181213,237.882019 896.071289,253.667831 
z"/>
<path fill="#285282" opacity="1.000000" stroke="none" 
	d="
M883.770325,608.010986 
	C885.436035,612.522217 893.209656,613.818420 896.892517,610.256348 
	C897.988770,609.196045 899.464600,608.528137 900.766602,607.680481 
	C901.052368,607.989502 901.338135,608.298584 901.623901,608.607666 
	C901.120728,610.779297 900.617554,612.950928 900.044495,615.424255 
	C903.327454,615.959595 905.365356,615.193909 905.986389,611.864807 
	C906.877686,607.087036 909.071472,606.108704 913.879333,607.393494 
	C918.200989,608.548523 922.686707,609.126099 927.128235,609.761047 
	C927.880127,609.868530 929.318115,609.153259 929.519775,608.523682 
	C931.756897,601.539612 938.266296,600.864807 943.722412,598.539490 
	C945.431519,597.811096 946.758423,596.229065 948.422485,595.342407 
	C951.339355,593.788330 954.381653,592.469482 957.789307,591.096924 
	C956.691650,594.363037 955.176147,597.584290 953.206543,600.743713 
	C948.514709,599.375610 947.985229,603.150879 946.098328,605.067139 
	C947.260986,606.681274 948.201599,607.987122 949.142212,609.292908 
	C941.385437,624.898804 933.628601,640.504700 925.391357,656.013000 
	C922.979980,655.322998 921.049133,654.730530 918.691223,654.007080 
	C919.967468,652.084778 920.964722,650.582825 922.197876,648.725403 
	C916.876465,646.821533 913.796936,650.914673 909.895386,652.000366 
	C907.384033,652.699219 904.609741,653.438416 902.127991,653.048279 
	C897.358765,652.298584 893.308899,653.207214 889.324341,655.821045 
	C888.275696,656.508911 886.173523,656.414612 884.938232,655.846680 
	C880.397339,653.758850 875.812866,651.629944 871.663757,648.883484 
	C869.600952,647.518127 868.448120,644.778137 866.883667,642.659973 
	C867.254028,641.086182 867.348450,639.377930 868.039307,637.960327 
	C872.833313,628.122375 877.751404,618.344849 882.859131,608.279419 
	C883.088501,608.010803 883.543091,608.017090 883.770325,608.010986 
z"/>
<path fill="#53749B" opacity="1.000000" stroke="none" 
	d="
M990.996094,320.025818 
	C968.268799,320.030914 945.541565,320.034363 922.814270,320.042847 
	C919.496216,320.044098 916.178223,320.069519 912.360596,319.605377 
	C911.779358,318.868988 911.697693,318.610962 911.615967,318.352905 
	C912.315735,315.467621 913.015442,312.582336 914.150146,309.556702 
	C916.581055,311.852692 918.577026,314.289032 920.573059,316.725372 
	C920.294678,317.140289 920.016357,317.555206 919.738037,317.970123 
	C926.359802,317.970123 932.982361,318.019135 939.602112,317.903900 
	C940.371521,317.890533 941.716492,317.040924 941.789246,316.454346 
	C942.232849,312.878387 944.717407,313.031982 947.315063,312.939941 
	C948.372803,312.902496 949.558350,312.422729 950.429443,311.790924 
	C959.909851,304.913910 965.482910,294.544495 973.199768,286.075989 
	C978.142273,280.652130 982.376526,274.582977 987.167603,268.499146 
	C987.027649,268.222137 986.527405,267.232025 986.027222,266.241882 
	C994.720459,266.183228 1003.413757,266.124573 1012.683228,266.537842 
	C1015.134094,267.339905 1017.003479,267.915070 1018.884216,267.954651 
	C1024.765625,268.078491 1030.651367,268.000153 1037.863037,268.000153 
	C1035.928589,270.256165 1034.936523,271.292908 1034.081299,272.432373 
	C1031.047852,276.474182 1026.913452,280.141541 1025.288208,284.697205 
	C1021.528687,295.234772 1017.133850,304.887329 1008.946533,313.038391 
	C1004.951050,317.016174 1001.485718,318.446930 996.328796,318.119751 
	C994.598450,318.009979 992.776245,319.348999 990.996094,320.025818 
z"/>
<path fill="#436893" opacity="1.000000" stroke="none" 
	d="
M1001.626587,380.166107 
	C1003.551453,380.842285 1005.069580,381.886200 1006.610413,381.920929 
	C1014.269531,382.093536 1021.934692,381.986450 1029.597656,382.012268 
	C1031.185059,382.017639 1032.771973,382.169067 1034.736694,383.296753 
	C1032.218750,384.948669 1029.885864,387.057007 1027.148315,388.167145 
	C1018.830505,391.540100 1017.738953,399.413239 1014.907898,406.380646 
	C1013.424500,410.031525 1010.743958,413.176819 1008.952393,416.726257 
	C1006.464050,421.655975 1004.214966,426.713257 1002.044373,431.793243 
	C1001.159790,433.863525 1000.958069,436.225159 1000.076721,438.297394 
	C998.538025,441.915649 996.990662,445.584412 994.926331,448.908752 
	C993.100647,451.848877 990.944153,454.835571 988.253296,456.925751 
	C984.486938,459.851349 979.776794,461.572937 976.056763,464.543823 
	C972.878357,467.082123 970.257324,470.462830 967.863647,473.809814 
	C962.637939,481.116913 955.386902,481.373291 947.213867,480.077515 
	C947.151550,479.109253 947.472046,478.306305 948.339172,477.164551 
	C949.227234,475.786041 949.568665,474.746338 949.910095,473.706604 
	C955.605103,462.075714 961.223145,450.406342 967.012390,438.822540 
	C976.676453,419.485291 986.450073,400.202820 996.561646,380.906311 
	C997.292297,380.687988 997.638916,380.460663 997.985535,380.233337 
	C999.067078,380.178406 1000.148682,380.123474 1001.626587,380.166107 
z"/>
<path fill="#224D7F" opacity="1.000000" stroke="none" 
	d="
M866.525757,642.732178 
	C868.448120,644.778137 869.600952,647.518127 871.663757,648.883484 
	C875.812866,651.629944 880.397339,653.758850 884.938232,655.846680 
	C886.173523,656.414612 888.275696,656.508911 889.324341,655.821045 
	C893.308899,653.207214 897.358765,652.298584 902.127991,653.048279 
	C904.609741,653.438416 907.384033,652.699219 909.895386,652.000366 
	C913.796936,650.914673 916.876465,646.821533 922.197876,648.725403 
	C920.964722,650.582825 919.967468,652.084778 918.691223,654.007080 
	C921.049133,654.730530 922.979980,655.322998 925.147461,656.277222 
	C920.159973,667.188049 914.953613,677.745911 909.693176,688.276672 
	C908.887146,689.890198 907.831726,691.379211 906.070679,692.977661 
	C897.191101,693.015503 889.131592,693.065125 881.074829,692.938293 
	C879.271790,692.909912 876.758423,691.325439 875.802612,692.059570 
	C871.089233,695.679260 865.525879,694.026672 862.437195,691.743652 
	C856.495300,687.351501 850.698669,685.668762 843.710205,686.893494 
	C850.765808,672.659790 857.816040,658.423462 864.897400,644.202576 
	C865.167542,643.660156 865.737549,643.267090 866.525757,642.732178 
z"/>
<path fill="#5F7EA2" opacity="1.000000" stroke="none" 
	d="
M985.565186,266.145020 
	C986.527405,267.232025 987.027649,268.222137 987.167603,268.499146 
	C982.376526,274.582977 978.142273,280.652130 973.199768,286.075989 
	C965.482910,294.544495 959.909851,304.913910 950.429443,311.790924 
	C949.558350,312.422729 948.372803,312.902496 947.315063,312.939941 
	C944.717407,313.031982 942.232849,312.878387 941.789246,316.454346 
	C941.716492,317.040924 940.371521,317.890533 939.602112,317.903900 
	C932.982361,318.019135 926.359802,317.970123 919.738037,317.970123 
	C920.016357,317.555206 920.294678,317.140289 920.573059,316.725372 
	C918.577026,314.289032 916.581055,311.852692 914.298706,309.210693 
	C917.322021,295.620880 920.712036,282.255737 923.883972,268.838989 
	C924.656006,265.573151 926.810486,265.806976 929.173340,265.817932 
	C947.816589,265.904419 966.459961,265.973602 985.565186,266.145020 
z"/>
<path fill="#18467A" opacity="1.000000" stroke="none" 
	d="
M843.435791,687.098145 
	C850.698669,685.668762 856.495300,687.351501 862.437195,691.743652 
	C865.525879,694.026672 871.089233,695.679260 875.802612,692.059570 
	C876.758423,691.325439 879.271790,692.909912 881.074829,692.938293 
	C889.131592,693.065125 897.191101,693.015503 905.730469,693.050903 
	C900.888428,704.208252 895.565491,715.344177 889.993652,726.740356 
	C888.105835,729.126648 886.329224,731.162903 884.868896,733.405090 
	C883.549744,735.430664 882.576355,737.681396 881.464966,739.805115 
	C878.534119,737.308472 876.299805,734.449463 873.375000,733.174866 
	C870.271545,731.822388 866.509827,731.992859 863.040649,731.464661 
	C856.424316,730.457153 849.278015,730.502319 846.227356,722.608887 
	C845.775146,721.438782 844.849182,720.220154 843.804871,719.548645 
	C837.817627,715.698364 836.607483,709.763000 836.132202,703.130249 
	C838.295227,697.722778 840.728333,692.512756 843.435791,687.098145 
M854.656555,695.530273 
	C855.302124,695.046326 855.947693,694.562378 856.593323,694.078491 
	C856.287537,693.783386 855.981750,693.488220 855.675964,693.193054 
	C855.198364,693.807983 854.720764,694.422913 854.656555,695.530273 
z"/>
<path fill="#6C88AA" opacity="1.000000" stroke="none" 
	d="
M905.073425,206.594299 
	C903.760559,207.643188 902.496216,208.290436 900.291504,209.419052 
	C900.413025,207.082596 900.103760,205.299866 900.655396,203.843140 
	C902.451477,199.100281 901.847900,194.498734 899.146729,190.611893 
	C895.782166,185.770386 896.823425,181.356323 899.605652,177.224121 
	C901.678528,174.145309 902.447083,171.330322 900.990723,167.971695 
	C896.973694,158.707230 898.790588,149.730331 901.465698,140.454269 
	C902.718628,136.109955 901.972046,131.072235 901.578979,126.395218 
	C900.848145,117.698013 901.211182,109.637024 906.250122,101.736450 
	C910.027466,95.814003 912.395996,88.643639 908.935669,80.830582 
	C915.563538,77.215538 922.240784,74.020485 929.836853,70.385727 
	C927.671631,83.221039 925.787598,94.971611 923.693970,106.684700 
	C918.491760,135.788849 913.199402,164.876892 907.920959,193.967346 
	C907.595520,195.760773 907.076538,197.519089 906.144165,199.659073 
	C905.520569,200.737411 905.400635,201.450424 905.280640,202.163452 
	C905.227722,203.506531 905.174805,204.849594 905.073425,206.594299 
z"/>
<path fill="#335B89" opacity="1.000000" stroke="none" 
	d="
M1039.037476,266.321869 
	C1057.031006,266.246979 1075.024414,266.172089 1093.506836,266.475769 
	C1094.035767,267.295166 1094.075806,267.735962 1094.115723,268.176758 
	C1085.445679,284.664246 1076.848022,301.191010 1067.975952,317.569031 
	C1067.214355,318.974701 1064.642334,320.122192 1062.890137,320.152069 
	C1050.903076,320.356232 1038.910400,320.229614 1026.547241,319.722412 
	C1029.670288,318.822906 1033.173828,318.468781 1036.656738,317.969635 
	C1038.033203,317.772369 1040.120972,317.669189 1040.592651,316.812012 
	C1043.898804,310.804077 1047.273071,304.775208 1049.849731,298.437683 
	C1053.877197,288.532135 1057.291626,278.377319 1061.088501,267.992157 
	C1055.126587,267.992157 1049.145752,268.094543 1043.173218,267.916016 
	C1041.780029,267.874390 1040.415283,266.878632 1039.037476,266.321869 
z"/>
<path fill="#18467A" opacity="1.000000" stroke="none" 
	d="
M736.427612,320.611816 
	C733.207581,310.313690 733.468384,299.990204 735.167603,289.744873 
	C735.931213,285.140625 738.092041,280.784149 739.301514,276.230957 
	C739.896973,273.989288 739.770142,271.555756 740.073303,267.997803 
	C749.387878,267.997803 760.227417,267.997803 771.542236,268.402222 
	C772.225342,271.068512 773.044189,273.483368 772.523682,275.562958 
	C771.099670,281.252350 768.746155,286.717712 767.451172,292.428375 
	C766.189453,297.991821 765.367493,303.733154 765.148987,309.426941 
	C765.008484,313.089508 766.306946,316.807281 766.960449,320.500305 
	C756.935486,320.575470 746.910461,320.650665 736.427612,320.611816 
z"/>
<path fill="#436893" opacity="1.000000" stroke="none" 
	d="
M1038.576172,266.219971 
	C1040.415283,266.878632 1041.780029,267.874390 1043.173218,267.916016 
	C1049.145752,268.094543 1055.126587,267.992157 1061.088501,267.992157 
	C1057.291626,278.377319 1053.877197,288.532135 1049.849731,298.437683 
	C1047.273071,304.775208 1043.898804,310.804077 1040.592651,316.812012 
	C1040.120972,317.669189 1038.033203,317.772369 1036.656738,317.969635 
	C1033.173828,318.468781 1029.670288,318.822906 1026.085205,319.633331 
	C1014.637634,320.084839 1003.279724,320.138184 991.458984,320.108643 
	C992.776245,319.348999 994.598450,318.009979 996.328796,318.119751 
	C1001.485718,318.446930 1004.951050,317.016174 1008.946533,313.038391 
	C1017.133850,304.887329 1021.528687,295.234772 1025.288208,284.697205 
	C1026.913452,280.141541 1031.047852,276.474182 1034.081299,272.432373 
	C1034.936523,271.292908 1035.928589,270.256165 1037.863037,268.000153 
	C1030.651367,268.000153 1024.765625,268.078491 1018.884216,267.954651 
	C1017.003479,267.915070 1015.134094,267.339905 1013.144043,266.637726 
	C1021.390686,266.216461 1029.752808,266.167297 1038.576172,266.219971 
z"/>
<path fill="#285282" opacity="1.000000" stroke="none" 
	d="
M767.418579,320.615601 
	C766.306946,316.807281 765.008484,313.089508 765.148987,309.426941 
	C765.367493,303.733154 766.189453,297.991821 767.451172,292.428375 
	C768.746155,286.717712 771.099670,281.252350 772.523682,275.562958 
	C773.044189,273.483368 772.225342,271.068512 772.011169,268.405731 
	C772.456482,268.003693 772.908020,268.002533 774.162842,267.996399 
	C781.976562,267.995453 788.987061,267.999481 796.038208,268.365967 
	C797.648926,271.037994 797.286377,273.167694 796.780701,275.981506 
	C794.305359,289.754852 791.461914,303.657196 796.679077,317.507385 
	C797.014832,318.398590 796.878479,319.467560 796.961670,320.453857 
	C787.266724,320.546234 777.571777,320.638580 767.418579,320.615601 
z"/>
<path fill="#335B89" opacity="1.000000" stroke="none" 
	d="
M797.417786,320.575989 
	C796.878479,319.467560 797.014832,318.398590 796.679077,317.507385 
	C791.461914,303.657196 794.305359,289.754852 796.780701,275.981506 
	C797.286377,273.167694 797.648926,271.037994 796.506348,268.365601 
	C801.320496,268.007172 805.713806,268.147888 810.089722,267.933899 
	C811.424377,267.868683 812.711243,266.827545 814.020020,266.233337 
	C820.368652,266.166199 826.717285,266.099030 833.534424,266.021790 
	C832.712158,266.675201 831.454468,267.819031 830.124268,267.910828 
	C826.348511,268.171417 822.543213,268.002167 818.937927,268.002167 
	C819.304443,276.054871 820.308105,283.691528 819.827881,291.233704 
	C819.238831,300.484314 816.920593,309.683289 821.058533,318.871948 
	C820.337158,319.344971 820.170776,319.569977 820.092468,319.860138 
	C818.642334,319.951935 817.192200,320.043732 815.437866,320.321838 
	C809.380432,320.571442 803.627136,320.634766 797.417786,320.575989 
z"/>
<path fill="#4A6D96" opacity="1.000000" stroke="none" 
	d="
M857.258484,411.729919 
	C856.876465,410.201080 855.938477,407.975433 856.655457,406.635223 
	C859.354675,401.589966 859.557007,396.342560 859.687866,390.824860 
	C859.734680,388.851685 862.563538,386.944489 864.484131,385.000061 
	C862.384583,393.808533 859.923462,402.624054 857.258484,411.729919 
z"/>
<path fill="#436893" opacity="1.000000" stroke="none" 
	d="
M813.558716,266.137207 
	C812.711243,266.827545 811.424377,267.868683 810.089722,267.933899 
	C805.713806,268.147888 801.320496,268.007172 796.465698,268.003113 
	C788.987061,267.999481 781.976562,267.995453 774.501526,267.995117 
	C774.000854,267.606567 773.964722,267.214386 773.931274,266.526794 
	C786.988525,266.167999 800.042969,266.104553 813.558716,266.137207 
z"/>
<path fill="#144379" opacity="1.000000" stroke="none" 
	d="
M694.803467,665.249573 
	C696.623474,666.290833 698.899719,667.313293 699.551331,668.973389 
	C699.942078,669.968994 698.079224,672.402283 696.664917,673.312195 
	C695.991516,673.745483 694.000854,672.131470 692.341187,671.239136 
	C692.908875,669.188721 693.742249,667.343994 694.803467,665.249573 
z"/>
<path fill="#114176" opacity="1.000000" stroke="none" 
	d="
M660.137024,730.394470 
	C661.612305,734.499756 662.847412,738.849976 664.270203,743.861511 
	C660.961975,741.922424 658.472595,740.463318 655.592163,739.004761 
	C656.766296,736.216736 658.331543,733.428101 660.137024,730.394470 
z"/>
<path fill="#114176" opacity="1.000000" stroke="none" 
	d="
M710.184570,759.244385 
	C708.814148,758.007385 707.422424,756.765991 706.030701,755.524597 
	C707.459900,754.665833 708.837463,753.698364 710.336304,752.986267 
	C711.354187,752.502686 712.542175,752.377075 714.097656,752.093689 
	C713.706970,753.615784 712.872681,755.135681 711.459473,756.986938 
	C710.650696,757.957031 710.420715,758.595703 710.190796,759.234375 
	C710.190796,759.234375 710.163330,759.239929 710.184570,759.244385 
z"/>
<path fill="#305987" opacity="1.000000" stroke="none" 
	d="
M949.410767,609.064209 
	C948.201599,607.987122 947.260986,606.681274 946.098328,605.067139 
	C947.985229,603.150879 948.514709,599.375610 952.940430,600.980347 
	C951.978821,603.797668 950.829041,606.316589 949.410767,609.064209 
z"/>
<path fill="#436893" opacity="1.000000" stroke="none" 
	d="
M942.596191,488.170471 
	C943.412170,488.925873 944.656372,490.408905 944.386841,490.773743 
	C943.673584,491.739258 942.305298,492.220795 940.793457,492.815918 
	C941.037659,491.287384 941.686035,489.837891 942.596191,488.170471 
z"/>
<path fill="#39608C" opacity="1.000000" stroke="none" 
	d="
M949.669922,473.912994 
	C949.568665,474.746338 949.227234,475.786041 948.541992,476.904968 
	C948.608704,476.029236 949.019226,475.074310 949.669922,473.912994 
z"/>
<path fill="#39608C" opacity="1.000000" stroke="none" 
	d="
M958.454346,591.026794 
	C958.535278,590.183960 958.870422,589.159424 959.552795,588.065186 
	C959.502869,588.945312 959.105713,589.895203 958.454346,591.026794 
z"/>
<path fill="#5F7EA2" opacity="1.000000" stroke="none" 
	d="
M905.574036,202.001160 
	C905.400635,201.450424 905.520569,200.737411 905.982666,199.981201 
	C906.172302,200.571609 906.019836,201.205246 905.574036,202.001160 
z"/>
<path fill="#5F7EA2" opacity="1.000000" stroke="none" 
	d="
M1094.374023,267.997498 
	C1094.075806,267.735962 1094.035767,267.295166 1093.969604,266.523895 
	C1094.173096,266.735046 1094.402710,267.276642 1094.374023,267.997498 
z"/>
<path fill="#39608C" opacity="1.000000" stroke="none" 
	d="
M997.770020,380.156708 
	C997.638916,380.460663 997.292297,380.687988 996.847778,380.686310 
	C996.956970,380.201019 997.225098,380.075256 997.770020,380.156708 
z"/>
<path fill="#0D3E74" opacity="1.000000" stroke="none" 
	d="
M710.464966,759.057983 
	C710.420715,758.595703 710.650696,757.957031 711.230103,757.221680 
	C711.299377,757.710510 711.019226,758.296082 710.464966,759.057983 
z"/>
<path fill="#436893" opacity="1.000000" stroke="none" 
	d="
M1063.419189,382.162933 
	C1063.106567,381.873749 1063.059082,381.378967 1063.000732,380.512085 
	C1063.221313,380.745758 1063.452759,381.351562 1063.419189,382.162933 
z"/>
<path fill="#5F7EA2" opacity="1.000000" stroke="none" 
	d="
M911.399414,318.562103 
	C911.697693,318.610962 911.779358,318.868988 911.932556,319.526550 
	C911.730286,319.541168 911.456543,319.156219 911.399414,318.562103 
z"/>
<path fill="#436893" opacity="1.000000" stroke="none" 
	d="
M642.921753,320.336609 
	C643.199951,319.999634 643.494934,320.070435 643.896118,320.451324 
	C643.677002,320.633911 643.322388,320.628235 642.921753,320.336609 
z"/>
<path fill="#4A6D96" opacity="1.000000" stroke="none" 
	d="
M878.580566,330.900879 
	C878.364441,330.812195 878.267212,330.495850 878.435242,330.169464 
	C878.700134,330.330719 878.699768,330.501953 878.580566,330.900879 
z"/>
<path fill="#144379" opacity="1.000000" stroke="none" 
	d="
M838.291199,828.830566 
	C837.966003,828.760681 837.842834,828.515442 837.719666,828.270264 
	C837.861694,828.214661 838.003723,828.159058 838.382324,828.119385 
	C838.576965,828.308655 838.535095,828.481995 838.291199,828.830566 
z"/>
<path fill="#114176" opacity="1.000000" stroke="none" 
	d="
M694.955933,743.931274 
	C693.305359,742.356934 692.025940,740.779480 690.108154,738.414978 
	C696.178833,739.102966 697.431519,740.902527 694.955933,743.931274 
z"/>
<path fill="#305987" opacity="1.000000" stroke="none" 
	d="
M991.373535,516.537476 
	C990.712646,514.951965 990.377502,513.512024 990.042358,512.072021 
	C991.181213,512.115845 992.320068,512.159607 993.458862,512.203430 
	C992.872375,513.696655 992.285889,515.189880 991.373535,516.537476 
z"/>
<path fill="#18467A" opacity="1.000000" stroke="none" 
	d="
M860.531189,738.655151 
	C860.205261,736.835571 860.205261,735.187866 860.205261,733.540161 
	C860.696899,733.501343 861.188538,733.462524 861.680176,733.423706 
	C863.152161,735.182068 864.624207,736.940491 866.096252,738.698853 
	C865.908447,739.090759 865.720703,739.482666 865.532898,739.874634 
	C863.974304,739.525452 862.415710,739.176270 860.531189,738.655151 
z"/>
<path fill="#0D3E74" opacity="1.000000" stroke="none" 
	d="
M812.853882,824.711548 
	C812.127563,823.803223 811.757141,822.805664 811.386780,821.808228 
	C811.949646,821.653442 812.512573,821.498657 813.075439,821.343872 
	C813.120239,822.436646 813.165039,823.529541 812.853882,824.711548 
z"/>
<path fill="#0D3E74" opacity="1.000000" stroke="none" 
	d="
M808.045532,817.394409 
	C808.287354,817.790710 808.285645,818.184937 808.255432,818.576965 
	C808.254578,818.588013 807.948975,818.575439 807.785522,818.573914 
	C807.789673,818.179932 807.793823,817.786011 808.045532,817.394409 
z"/>
<path fill="#285282" opacity="1.000000" stroke="none" 
	d="
M820.294312,319.782166 
	C820.170776,319.569977 820.337158,319.344971 820.786621,319.093994 
	C820.911438,319.300140 820.749634,319.533936 820.294312,319.782166 
z"/>
<path fill="#224D7F" opacity="1.000000" stroke="none" 
	d="
M854.449890,695.284058 
	C854.720764,694.422913 855.198364,693.807983 855.675964,693.193054 
	C855.981750,693.488220 856.287537,693.783386 856.593262,694.078491 
	C855.947693,694.562378 855.302124,695.046326 854.449890,695.284058 
z"/>
</svg>